<?xml version="1.0" encoding="utf-8"?>
<svg viewBox="0 0 128 128" xmlns="http://www.w3.org/2000/svg" xmlns:bx="https://boxy-svg.com">
  <defs>
    <bx:grid x="-16" y="-16" width="8" height="8"/>
  </defs>
  <path style="" d="M 103.91 74.535 C 120.485 49.674 106.777 1.372 65.341 1.372 C 23.905 1.372 8.752 49.674 25.326 74.535 C 31.828 84.287 48.767 91.109 48.767 99.396 L 57.338 99.396 C 57.338 82.822 32.185 82.765 32.192 41.386 C 32.2 0.008 98.49 -0.041 98.49 41.386 C 98.49 82.814 73.912 82.822 73.912 99.396 L 81.915 99.396 C 81.915 91.109 97.409 84.287 103.91 74.535 Z"/>
  <polygon style="" points="43.589 102.248 86.747 101.899 90.202 111.746 40.48 111.746"/>
  <path style="" d="M 73.497 15.963 L 62.533 48.696 L 85.144 52.485 L 61.997 95.233 L 68.155 62.031 L 40.763 57.961 L 73.497 15.963 Z"/>
  <polygon style="" points="43.121 115.468 88.551 115.119 92.189 124.966 39.848 124.966"/>
</svg>