<?xml version="1.0" encoding="UTF-8" standalone="no"?>
<svg
   viewBox="0 0 18 15"
   width="18"
   height="15"
   version="1.1"
   id="svg4"
   xmlns="http://www.w3.org/2000/svg"
   xmlns:svg="http://www.w3.org/2000/svg">
  <defs
     id="defs8" />
  <path
     d="m 18,1.484 c 0,0.82 -0.665,1.484 -1.484,1.484 H 1.484 C 0.665,2.969 0,2.304 0,1.484 v 0 C 0,0.665 0.665,0 1.484,0 H 16.516 C 17.335,0 18,0.665 18,1.484 Z m 0,6.032 C 18,8.335 17.335,9 16.516,9 H 1.484 C 0.665,9 0,8.335 0,7.516 v 0 C 0,6.696 0.665,6.032 1.484,6.032 H 16.516 C 17.335,6.031 18,6.696 18,7.516 Z m 0,6 C 18,14.335 17.335,15 16.516,15 H 1.484 C 0.665,15 0,14.335 0,13.516 v 0 c 0,-0.82 0.665,-1.483 1.484,-1.483 H 16.516 C 17.335,12.031 18,12.695 18,13.516 Z"
     id="path2" />
</svg>
