<?xml version="1.0" encoding="utf-8"?>
<svg viewBox="0 0 128 128" xmlns="http://www.w3.org/2000/svg" xmlns:bx="https://boxy-svg.com">
  <defs>
    <bx:grid x="-16" y="-16" width="8" height="8"/>
  </defs>
  <path style="" d="M 21.999 79.92 L 59.333 113.743 L 116.83 1.457 L 53.759 85.853 L 21.999 79.92 Z"/>
  <path style="" d="M 94.789 26.209 L 101.01 18.161 C 101.01 18.161 86.577 4.709 64.306 4.709 C 29.586 4.709 3.546 30.749 3.546 65.468 C 3.546 100.188 29.586 126.227 64.306 126.227 C 99.025 126.227 123.359 99.505 123.359 64.786 C 123.359 64.786 123.685 41.085 110.108 25.082 L 106.103 35.432 C 112.171 47.24 113.18 50.405 113.436 66.125 C 113.436 92.164 90.345 117.547 64.306 117.547 C 38.266 117.547 12.226 91.507 12.226 65.468 C 12.226 39.428 38.091 14.263 64.131 14.263 C 81.49 14.263 94.789 26.209 94.789 26.209 Z"/>
</svg>