<?xml version="1.0" encoding="utf-8"?>
<svg viewBox="0 0 128 128" xmlns="http://www.w3.org/2000/svg" xmlns:bx="https://boxy-svg.com">
  <defs>
    <bx:grid x="-16" y="-16" width="8" height="8"/>
  </defs>
  <path style="stroke: rgb(0, 0, 0); stroke-linecap: round; stroke-width: 0px;" d="M 1.801 30.326 C 20.117 30.326 36.145 33.324 47.594 38.973 C 29.276 44.048 20.013 60.143 10.854 74.825 C 17.75 50.96 25.99 40.912 25.99 40.912 C 25.99 40.912 17.846 35.047 1.801 30.326 Z"/>
  <path style="stroke: rgb(0, 0, 0); stroke-linecap: round; stroke-width: 0px;" d="M 62.172 44.821 C 83.279 40.173 108.064 27.422 119.277 10.493 C 106.326 14.316 85.634 10.493 51.992 3.576 C 74.422 16.891 90.993 22.355 90.993 22.355 C 80.9 31.725 75.689 37.094 62.172 44.821 Z" transform="matrix(-1, 0, 0, -1, 171.269005, 48.396999)"/>
  <path style="" d="M 13.826 81.977 L 87.735 61.322 C 30.642 86.316 30.675 79.448 43.173 92.888 C 58.959 94.669 117.989 86.314 117.989 56.188 C 130.352 132.003 55.179 145.427 13.826 81.977 Z"/>
</svg>